<svg width="512" height="512" viewBox="0 0 512 512" fill="none" xmlns="http://www.w3.org/2000/svg">
<path d="M120 312C75.888 312 40 347.888 40 392C40 436.112 75.888 472 120 472C164.112 472 200 436.112 200 392C200 347.888 164.112 312 120 312ZM120 456C84.712 456 56 427.288 56 392C56 356.712 84.712 328 120 328C155.288 328 184 356.712 184 392C184 427.288 155.288 456 120 456Z" fill="white"/>
<path d="M112 388.688L98.344 402.344L109.656 413.656L128 395.312V344H112V388.688Z" fill="white"/>
<path d="M480 40H456V32C456 18.768 445.232 8 432 8C418.768 8 408 18.768 408 32V40H392V32C392 18.768 381.232 8 368 8C354.768 8 344 18.768 344 32V40H264V32C264 18.768 253.232 8 240 8C226.768 8 216 18.768 216 32V40H200V32C200 18.768 189.232 8 176 8C162.768 8 152 18.768 152 32V40H128C114.768 40 104 50.768 104 64V216H72V264H88V284.72C41.8 298.528 8 341.368 8 392C8 453.76 58.24 504 120 504C181.76 504 232 453.76 232 392H216C216 444.936 172.936 488 120 488C67.064 488 24 444.936 24 392C24 339.064 67.064 296 120 296C164.744 296 203.168 326.368 213.432 369.832L214.888 376H480C493.232 376 504 365.232 504 352V64C504 50.768 493.232 40 480 40ZM424 32C424 27.584 427.592 24 432 24C436.408 24 440 27.584 440 32L440.008 72H424V32ZM360 32C360 27.584 363.592 24 368 24C372.408 24 376 27.584 376 32L376.008 72H360V32ZM232 32C232 27.584 235.592 24 240 24C244.408 24 248 27.584 248 32L248.008 72H232V32ZM168 32C168 27.584 171.592 24 176 24C180.408 24 184 27.584 184 32L184.008 72H168V32ZM88 232H152V248H88V232ZM136 281.2C130.76 280.456 125.432 280 120 280C114.552 280 109.24 280.52 104 281.28V264H136V281.2ZM488 352C488 356.416 484.408 360 480 360H227.368C225.72 354.448 223.648 349.12 221.232 344H456V136H152V199.488H168V152H440V328H212.032C197.624 307.2 176.472 291.92 152 284.688V264H168V216H120V120H488V352ZM488 104H120V64C120 59.584 123.592 56 128 56H152V72C152 80.824 159.176 88 168 88H184C192.824 88 200 80.824 200 72V56H216V72C216 80.824 223.176 88 232 88H248C256.824 88 264 80.824 264 72V56H344V72C344 80.824 351.176 88 360 88H376C384.824 88 392 80.824 392 72V56H408V72C408 80.824 415.176 88 424 88H440C448.824 88 456 80.824 456 72V56H480C484.408 56 488 59.584 488 64V104Z" fill="white"/>
<path d="M304 280C295.176 280 288 272.824 288 264H272C272 278.872 282.24 291.288 296 294.864V312H312V294.864C325.76 291.288 336 278.872 336 264C336 246.352 321.648 232 304 232C295.176 232 288 224.824 288 216C288 207.176 295.176 200 304 200C312.824 200 320 207.176 320 216H336C336 201.128 325.76 188.712 312 185.136V168H296V185.136C282.24 188.712 272 201.128 272 216C272 233.648 286.352 248 304 248C312.824 248 320 255.176 320 264C320 272.824 312.824 280 304 280Z" fill="white"/>
</svg>
